<svg width="45" height="30" viewBox="0 0 45 30" fill="none" xmlns="http://www.w3.org/2000/svg">
<path d="M39.5065 0H5.50279C2.46741 0 0 2.1615 0 4.82055V25.1794C0 27.8385 2.46741 30 5.50279 30H39.4972C42.5326 30 45 27.8385 45 25.1794V4.82871C45.0093 2.16966 42.5419 0 39.5065 0ZM42.4953 25.1794C42.4953 26.6232 41.1545 27.7977 39.5065 27.7977H5.50279C3.85475 27.7977 2.51397 26.6232 2.51397 25.1794V4.82871C2.51397 3.38499 3.85475 2.21044 5.50279 2.21044H39.4972C41.1452 2.21044 42.486 3.38499 42.486 4.82871V25.1794H42.4953Z" fill="white"/>
<path d="M28.3797 14.7472L39.3853 6.10121C39.8974 5.69338 39.9439 5.00006 39.4784 4.54329C39.0128 4.09468 38.2214 4.0539 37.7 4.46173L22.5231 16.3948L19.5622 14.0784C19.5529 14.0702 19.5436 14.0621 19.5436 14.0539C19.4784 13.9968 19.4132 13.9479 19.3387 13.8989L7.29032 4.45357C6.76891 4.04574 5.97747 4.08652 5.51193 4.54329C5.04638 5.00006 5.09293 5.69338 5.61435 6.10121L16.7503 14.8206L5.6609 23.9152C5.15811 24.3312 5.13018 25.0245 5.60504 25.4732C5.85643 25.7015 6.19163 25.8239 6.52682 25.8239C6.83408 25.8239 7.14135 25.726 7.38343 25.5303L18.6404 16.3051L21.6944 18.695C21.9365 18.8826 22.2344 18.9723 22.5324 18.9723C22.8303 18.9723 23.1376 18.8745 23.3704 18.6869L26.5082 16.2236L37.7 25.5384C37.9421 25.7423 38.2586 25.8402 38.5659 25.8402C38.9011 25.8402 39.227 25.726 39.4784 25.4976C39.9532 25.0572 39.9346 24.3557 39.4318 23.9397L28.3797 14.7472Z" fill="white"/>
</svg>
