<svg width="48" height="8" viewBox="0 0 48 8" fill="none" xmlns="http://www.w3.org/2000/svg">
<path d="M7.87969 4.24377C7.87969 5.20343 7.63969 6.04314 7.03969 6.64293C6.31969 7.36268 5.47969 7.72255 4.39969 7.72255C3.31969 7.72255 2.47968 7.36268 1.75968 6.64293C1.03968 5.92318 0.679688 5.08348 0.679688 4.00385C0.679688 2.92423 1.03968 2.08453 1.75968 1.36478C2.47968 0.64503 3.31969 0.285156 4.39969 0.285156C4.87969 0.285156 5.35969 0.405114 5.83969 0.64503C6.31969 0.884946 6.67968 1.12486 6.91968 1.48474L6.31968 2.08453C5.83968 1.48474 5.23969 1.24482 4.39969 1.24482C3.67969 1.24482 2.95969 1.48474 2.47969 2.08453C1.87969 2.56436 1.63969 3.28411 1.63969 4.12381C1.63969 4.96352 1.87969 5.68327 2.47969 6.1631C3.07969 6.64293 3.67969 7.0028 4.39969 7.0028C5.23969 7.0028 5.83969 6.76289 6.43969 6.1631C6.79969 5.80322 7.03969 5.32339 7.03969 4.7236H4.39969V3.76394H7.87969V4.24377ZM13.3997 1.24482H10.1597V3.52402H13.1597V4.36373H10.1597V6.64293H13.3997V7.60259H9.19969V0.405114H13.3997V1.24482ZM17.3597 7.60259H16.3997V1.24482H14.3597V0.405114H19.3997V1.24482H17.3597V7.60259ZM22.8797 7.60259V0.405114H23.8397V7.60259H22.8797ZM27.9197 7.60259H26.9597V1.24482H24.9197V0.405114H29.8397V1.24482H27.7997V7.60259H27.9197ZM39.3197 6.64293C38.5997 7.36268 37.7597 7.72255 36.6797 7.72255C35.5997 7.72255 34.7597 7.36268 34.0397 6.64293C33.3197 5.92318 32.9597 5.08348 32.9597 4.00385C32.9597 2.92423 33.3197 2.08453 34.0397 1.36478C34.7597 0.64503 35.5997 0.285156 36.6797 0.285156C37.7597 0.285156 38.5997 0.64503 39.3197 1.36478C40.0397 2.08453 40.3997 2.92423 40.3997 4.00385C40.3997 5.08348 40.0397 5.92318 39.3197 6.64293ZM34.7597 6.04314C35.2397 6.52297 35.9597 6.88285 36.6797 6.88285C37.3997 6.88285 38.1197 6.64293 38.5997 6.04314C39.0797 5.56331 39.4397 4.84356 39.4397 4.00385C39.4397 3.16415 39.1997 2.4444 38.5997 1.96457C38.1197 1.48474 37.3997 1.12486 36.6797 1.12486C35.9597 1.12486 35.2397 1.36478 34.7597 1.96457C34.2797 2.4444 33.9197 3.16415 33.9197 4.00385C33.9197 4.84356 34.1597 5.56331 34.7597 6.04314ZM41.7197 7.60259V0.405114H42.7997L46.2797 6.04314V0.405114H47.2397V7.60259H46.2797L42.5597 1.72465V7.60259H41.7197Z" fill="white"/>
</svg>
