<svg width="102" height="21" viewBox="0 0 102 21" fill="none" xmlns="http://www.w3.org/2000/svg">
<path d="M32.7204 6.15951C29.8403 6.15951 27.5603 8.31876 27.5603 11.3177C27.5603 14.1967 29.8403 16.4759 32.7204 16.4759C35.6004 16.4759 37.8804 14.3167 37.8804 11.3177C37.8804 8.1988 35.6004 6.15951 32.7204 6.15951ZM32.7204 14.3167C31.1604 14.3167 29.8403 12.9971 29.8403 11.1977C29.8403 9.39838 31.1604 8.07884 32.7204 8.07884C34.2804 8.07884 35.6004 9.27842 35.6004 11.1977C35.6004 12.9971 34.2804 14.3167 32.7204 14.3167ZM21.5603 6.15951C18.6803 6.15951 16.4003 8.31876 16.4003 11.3177C16.4003 14.1967 18.6803 16.4759 21.5603 16.4759C24.4403 16.4759 26.7203 14.3167 26.7203 11.3177C26.7203 8.1988 24.4403 6.15951 21.5603 6.15951ZM21.5603 14.3167C20.0003 14.3167 18.6803 12.9971 18.6803 11.1977C18.6803 9.39838 20.0003 8.07884 21.5603 8.07884C23.1203 8.07884 24.4403 9.27842 24.4403 11.1977C24.4403 12.9971 23.1203 14.3167 21.5603 14.3167ZM8.24032 7.71897V9.87821H13.4003C13.2803 11.0778 12.8003 12.0375 12.2003 12.6372C11.4803 13.357 10.2803 14.1967 8.24032 14.1967C5.00032 14.1967 2.60032 11.6776 2.60032 8.43871C2.60032 5.19985 5.12032 2.68073 8.24032 2.68073C9.92033 2.68073 11.2403 3.40048 12.2003 4.24018L13.7603 2.68073C12.4403 1.48115 10.7603 0.521484 8.36032 0.521484C4.04032 0.521484 0.320312 4.12023 0.320312 8.43871C0.320312 12.7572 4.04032 16.3559 8.36032 16.3559C10.7603 16.3559 12.4403 15.6362 13.8803 14.0767C15.3203 12.6372 15.8003 10.598 15.8003 9.0385C15.8003 8.55867 15.8003 8.07884 15.6803 7.71897H8.24032ZM62.7204 9.39838C62.2404 8.1988 61.0404 6.15951 58.4004 6.15951C55.7604 6.15951 53.6004 8.1988 53.6004 11.3177C53.6004 14.1967 55.7604 16.4759 58.6404 16.4759C60.9204 16.4759 62.3604 15.0364 62.8404 14.1967L61.1604 12.9971C60.5604 13.8368 59.8404 14.4366 58.6404 14.4366C57.4404 14.4366 56.7204 13.9568 56.1204 12.8772L62.9604 9.99817L62.7204 9.39838ZM55.7604 11.0778C55.7604 9.15846 57.3204 8.07884 58.4004 8.07884C59.2404 8.07884 60.0804 8.55867 60.3204 9.15846L55.7604 11.0778ZM50.1204 15.9961H52.4004V1.00132H50.1204V15.9961ZM46.5204 7.23913C45.9204 6.63934 44.9604 6.03955 43.7604 6.03955C41.2404 6.03955 38.8404 8.31876 38.8404 11.1977C38.8404 14.0767 41.1204 16.236 43.7604 16.236C44.9604 16.236 45.9204 15.6362 46.4004 15.0364H46.5204V15.7562C46.5204 17.6755 45.4404 18.7551 43.7604 18.7551C42.4404 18.7551 41.4804 17.7954 41.2404 16.9557L39.3204 17.7954C39.9204 19.115 41.3604 20.7944 43.8804 20.7944C46.5204 20.7944 48.6804 19.2349 48.6804 15.5162V6.39943H46.5204V7.23913ZM43.8804 14.3167C42.3204 14.3167 41.0004 12.9971 41.0004 11.1977C41.0004 9.39838 42.3204 8.07884 43.8804 8.07884C45.4404 8.07884 46.6404 9.39838 46.6404 11.1977C46.6404 12.9971 45.4404 14.3167 43.8804 14.3167ZM73.1604 1.00132H67.7604V15.9961H70.0404V10.358H73.1604C75.6804 10.358 78.0804 8.55867 78.0804 5.67968C78.0804 2.80069 75.6804 1.00132 73.1604 1.00132ZM73.2804 8.1988H70.0404V3.0406H73.2804C74.9604 3.0406 75.9204 4.4801 75.9204 5.55972C75.8004 6.87926 74.8404 8.1988 73.2804 8.1988ZM87.0804 6.03955C85.4004 6.03955 83.7204 6.7593 83.1204 8.31876L85.1604 9.15846C85.6404 8.31875 86.3604 8.07884 87.2004 8.07884C88.4004 8.07884 89.4804 8.79859 89.6004 9.99817V10.1181C89.2404 9.87821 88.2804 9.51834 87.3204 9.51834C85.1604 9.51834 83.0004 10.7179 83.0004 12.8772C83.0004 14.9164 84.8004 16.236 86.7204 16.236C88.2804 16.236 89.0004 15.5162 89.6004 14.7965H89.7204V15.9961H91.8804V10.2381C91.6404 7.59901 89.6004 6.03955 87.0804 6.03955ZM86.8404 14.3167C86.1204 14.3167 85.0404 13.9568 85.0404 12.9971C85.0404 11.7975 86.3604 11.4377 87.4404 11.4377C88.4004 11.4377 88.8804 11.6776 89.4804 11.9175C89.2404 13.357 88.0404 14.3167 86.8404 14.3167ZM99.4404 6.39943L96.9204 12.8772H96.8004L94.1604 6.39943H91.7604L95.7204 15.5162L93.4404 20.5545H95.7204L101.84 6.39943H99.4404ZM79.2804 15.9961H81.5604V1.00132H79.2804V15.9961Z" fill="white"/>
</svg>
